<svg width="303" height="38" viewBox="0 0 303 38" fill="none" xmlns="http://www.w3.org/2000/svg">
<path d="M302.157 17.0302L293.456 1.96887C292.751 0.749853 291.451 0 290.044 0H12.6408C11.2337 0 9.93417 0.749853 9.22896 1.96887L0.527649 17.0302C-0.175883 18.2492 -0.175883 19.7492 0.527649 20.9683L9.22896 36.031C9.93417 37.2501 11.2337 38 12.6408 38H290.044C291.451 38 292.751 37.2501 293.455 36.031L297.806 28.4997L302.157 20.9683C302.861 19.7492 302.861 18.2492 302.157 17.0302Z" fill="white"/>
<path d="M302.157 17.0302L293.456 1.96887C292.751 0.749853 291.451 0 290.044 0H12.6408C11.2337 0 9.93417 0.749853 9.22896 1.96887L0.527649 17.0302C-0.175883 18.2492 -0.175883 19.7492 0.527649 20.9683L9.22896 36.031C9.93417 37.2501 11.2337 38 12.6408 38H290.044C291.451 38 292.751 37.2501 293.455 36.031L297.806 28.4997L302.157 20.9683C302.861 19.7492 302.861 18.2492 302.157 17.0302Z" fill="white"/>
<path d="M302.157 17.0302L293.456 1.96887C292.751 0.749853 291.451 0 290.044 0H12.6408C11.2337 0 9.93417 0.749853 9.22896 1.96887L0.527649 17.0302C-0.175883 18.2492 -0.175883 19.7492 0.527649 20.9683L9.22896 36.031C9.93417 37.2501 11.2337 38 12.6408 38H290.044C291.451 38 292.751 37.2501 293.455 36.031L297.806 28.4997L302.157 20.9683C302.861 19.7492 302.861 18.2492 302.157 17.0302Z" stroke="#00214D" stroke-width="2"/>
</svg>
