<svg width="42" height="42" viewBox="0 0 42 42" fill="none" xmlns="http://www.w3.org/2000/svg">
<path d="M21 22.3125C23.8995 22.3125 26.25 19.962 26.25 17.0625C26.25 14.163 23.8995 11.8125 21 11.8125C18.1005 11.8125 15.75 14.163 15.75 17.0625C15.75 19.962 18.1005 22.3125 21 22.3125Z" stroke="black" stroke-width="2" stroke-linecap="round" stroke-linejoin="round"/>
<path d="M34.125 17.0625C34.125 28.875 21 38.0625 21 38.0625C21 38.0625 7.875 28.875 7.875 17.0625C7.875 13.5815 9.25781 10.2431 11.7192 7.78172C14.1806 5.32031 17.519 3.9375 21 3.9375C24.481 3.9375 27.8194 5.32031 30.2808 7.78172C32.7422 10.2431 34.125 13.5815 34.125 17.0625V17.0625Z" stroke="black" stroke-width="2" stroke-linecap="round" stroke-linejoin="round"/>
</svg>
