<svg width="43" height="38" viewBox="0 0 43 38" fill="none" xmlns="http://www.w3.org/2000/svg">
<path d="M42.1573 17.0302L33.4555 1.96887C32.7508 0.749853 31.451 0 30.0437 0H12.6408C11.2337 0 9.93417 0.749853 9.22896 1.96887L0.527649 17.0302C-0.175883 18.2492 -0.175883 19.7492 0.527649 20.9683L9.22896 36.031C9.93417 37.2501 11.2337 38 12.6408 38H30.0436C31.451 38 32.7508 37.2501 33.4554 36.031L42.1573 20.9683C42.8608 19.7492 42.8608 18.2492 42.1573 17.0302Z" stroke="#00214D" stroke-width="2"/>
<path d="M20.3281 25.5312C24.8586 25.5312 28.5312 21.8586 28.5312 17.3281C28.5312 12.7977 24.8586 9.125 20.3281 9.125C15.7977 9.125 12.125 12.7977 12.125 17.3281C12.125 21.8586 15.7977 25.5312 20.3281 25.5312Z" stroke="#00214D" stroke-width="2" stroke-linecap="round" stroke-linejoin="round"/>
<path d="M26.1283 23.1289L30.8744 27.8751" stroke="#00214D" stroke-width="2" stroke-linecap="round" stroke-linejoin="round"/>
</svg>
